<svg xmlns="http://www.w3.org/2000/svg" viewBox="0 0 512 512" width="512" height="512">
  <rect width="512" height="512" fill="#0ea5e9" rx="100" />
  <path fill="#ffffff" d="M256 128C185.3 128 128 185.3 128 256c0 37.3 16.1 71 41.7 94.6 15.5 14.3 22.3 36.6 22.3 57.4V424c0 13.3 10.7 24 24 24h72c13.3 0 24-10.7 24-24v-16c0-20.8 6.8-43.1 22.3-57.4C367.9 327 384 293.3 384 256c0-70.7-57.3-128-128-128zm0 216c-13.3 0-24-10.7-24-24s10.7-24 24-24 24 10.7 24 24-10.7 24-24 24zm40-80h-80c-13.3 0-24-10.7-24-24s10.7-24 24-24 24 10.7 24 24-10.7 24-24 24z"/>
</svg>
